<?xml version="1.0" standalone="no"?>
<!DOCTYPE svg PUBLIC "-//W3C//DTD SVG 20010904//EN"
 "http://www.w3.org/TR/2001/REC-SVG-20010904/DTD/svg10.dtd">
<svg version="1.0" xmlns="http://www.w3.org/2000/svg"
 width="152.000000pt" height="64.000000pt" viewBox="0 0 152.000000 64.000000"
 preserveAspectRatio="xMidYMid meet">

<g transform="translate(0.000000,64.000000) scale(0.100000,-0.100000)"
fill="#000000" stroke="none">
<path d="M352 588 c-7 -7 -12 -23 -12 -35 0 -21 -2 -22 -21 -12 -29 15 -69 5
-118 -28 -45 -31 -51 -43 -20 -43 19 0 19 -1 -4 -32 -13 -18 -32 -63 -41 -100
-20 -82 -20 -82 -1 -74 10 4 15 -1 15 -15 0 -27 39 -101 49 -94 5 3 7 -4 4
-15 -3 -11 0 -20 6 -20 6 0 11 6 11 13 0 6 5 4 11 -6 6 -9 14 -15 18 -12 5 2
14 -9 21 -26 8 -19 18 -28 27 -25 7 3 16 -1 19 -8 3 -8 14 -12 25 -9 26 7 139
134 159 180 13 30 18 34 23 20 15 -40 23 -12 15 55 -16 126 -78 218 -147 218
-18 0 -22 4 -16 18 16 38 17 62 3 62 -8 0 -19 -5 -26 -12z m-32 -62 c23 -13
22 -14 -20 -9 -36 4 -50 1 -69 -16 -27 -23 -54 -29 -31 -7 18 18 71 46 85 46
6 -1 21 -7 35 -14z m128 -43 c12 -10 24 -31 28 -46 l7 -29 -31 16 c-16 8 -44
29 -60 46 l-30 30 33 0 c18 0 42 -8 53 -17z m-204 -15 l-19 -23 26 23 c15 13
36 21 52 20 29 -2 35 -19 15 -35 -20 -16 -98 -25 -98 -12 0 18 20 49 32 49 6
0 3 -10 -8 -22z m164 -42 c12 -4 22 -11 22 -16 0 -16 -38 2 -62 28 -17 20 -18
22 -3 11 11 -9 30 -20 43 -23z m-44 -21 c14 -13 26 -26 26 -29 0 -2 -13 -14
-30 -26 l-30 -21 -25 28 c-30 34 -32 53 -6 53 11 0 23 5 26 10 8 13 8 13 39
-15z m-178 -11 c-3 -8 -2 -13 2 -10 11 6 62 16 62 11 0 -1 -18 -12 -40 -23
l-40 -19 0 28 c0 16 5 29 11 29 6 0 8 -7 5 -16z m316 -60 c-9 -15 -11 -15 -22
6 -11 20 -10 22 4 17 11 -4 16 -1 17 11 1 16 2 16 6 0 2 -10 0 -25 -5 -34z
m-227 7 c6 -19 -13 -61 -26 -61 -4 0 -12 14 -18 31 -13 39 -13 39 -1 39 6 0
10 -6 10 -13 0 -8 7 -14 15 -14 11 0 12 4 5 11 -13 13 -13 26 -1 26 5 0 12 -9
16 -19z m125 -7 c0 5 6 4 13 -2 7 -6 24 -8 36 -5 18 4 22 2 19 -8 -3 -8 -11
-13 -17 -11 -7 1 -10 -2 -7 -6 3 -5 -3 -17 -14 -27 -18 -16 -19 -15 -34 14
-18 34 -23 77 -6 51 5 -8 10 -11 10 -6z m-196 -28 c3 -13 2 -35 -3 -48 l-9
-23 -11 28 c-13 32 -14 51 -4 60 12 13 21 7 27 -17z m135 -27 c7 11 9 11 14 0
3 -8 6 -3 6 10 1 19 4 22 13 13 9 -9 5 -19 -17 -42 -16 -16 -33 -30 -37 -30
-11 0 -38 62 -31 73 2 4 13 -3 24 -15 15 -18 20 -20 28 -9z m141 -6 c0 -15 2
-16 10 -3 9 13 10 13 10 -1 0 -8 -6 -23 -13 -34 -13 -17 -15 -16 -25 13 -6 16
-8 33 -5 36 12 12 23 6 23 -11z m-205 -45 c4 15 10 21 12 14 3 -7 -1 -26 -7
-43 -15 -35 -32 -26 -49 24 l-11 32 24 -27 24 -27 7 27z m100 12 c-3 -5 -1
-10 4 -10 6 0 11 -7 11 -16 0 -11 5 -14 17 -10 13 5 11 0 -7 -19 -17 -19 -26
-22 -32 -13 -9 16 -11 62 -1 71 10 10 15 8 8 -3z m-125 -94 c0 -11 -1 -17 -3
-15 -2 2 -14 20 -27 39 l-24 34 26 -19 c15 -11 28 -29 28 -39z m99 -18 c-13
-25 -24 -23 -37 7 -17 36 -15 50 3 35 8 -7 12 -17 8 -23 -3 -6 -1 -7 6 -3 6 4
11 13 10 19 -4 31 4 39 11 13 6 -18 5 -36 -1 -48z m101 40 c0 -5 -4 -8 -10 -8
-5 0 -10 10 -10 23 0 18 2 19 10 7 5 -8 10 -18 10 -22z m-150 -52 c0 -8 -4
-18 -10 -21 -5 -3 -10 3 -10 14 0 12 5 21 10 21 6 0 10 -6 10 -14z"/>
<path d="M697 543 c-4 -3 -7 -46 -7 -95 l0 -88 65 0 64 0 7 35 c4 26 2 41 -9
53 -11 12 -13 22 -6 34 6 10 5 26 -1 42 -8 23 -15 26 -58 26 -27 0 -52 -3 -55
-7z m56 -48 c1 -5 -6 -11 -15 -13 -11 -2 -18 3 -18 13 0 17 30 18 33 0z m17
-65 c0 -13 -7 -20 -20 -20 -13 0 -20 7 -20 20 0 13 7 20 20 20 13 0 20 -7 20
-20z"/>
<path d="M908 543 l-48 -4 0 -88 0 -88 38 -7 c69 -11 84 -8 80 16 -2 17 -10
22 -33 23 -43 0 -40 29 3 33 39 4 38 25 -1 30 -39 5 -35 32 4 32 27 0 30 3 27
27 -3 30 -5 31 -70 26z"/>
<path d="M1078 543 c-41 -4 -49 -8 -54 -28 -5 -22 3 -145 10 -152 2 -2 26 -6
54 -10 43 -5 53 -3 58 11 8 22 1 29 -33 31 -41 2 -45 35 -4 35 21 0 31 5 31
15 0 9 -9 15 -25 15 -35 0 -33 28 3 32 21 2 27 8 27 27 0 28 -3 29 -67 24z"/>
<path d="M1197 543 c-4 -3 -7 -46 -7 -95 0 -81 2 -88 20 -88 16 0 20 7 20 30
0 37 14 38 37 3 25 -40 35 -44 55 -26 18 16 18 17 -1 37 -16 18 -18 29 -11 71
4 27 5 55 3 62 -5 14 -104 19 -116 6z m63 -78 c0 -8 -9 -15 -20 -15 -11 0 -20
7 -20 15 0 8 9 15 20 15 11 0 20 -7 20 -15z"/>
<path d="M754 292 l-51 -3 -7 -46 c-9 -69 -9 -70 32 -81 l37 -10 -32 -1 c-26
-1 -33 -5 -33 -21 0 -18 7 -20 71 -20 l70 0 -3 33 c-3 31 -4 32 -56 35 -60 4
-62 22 -1 22 l39 0 0 44 c0 25 -3 46 -7 48 -5 2 -31 2 -59 0z"/>
<path d="M930 260 c0 -48 -17 -54 -22 -8 -2 22 -9 34 -20 36 -16 3 -18 -6 -18
-87 0 -90 0 -91 25 -91 22 0 25 4 25 36 0 21 4 33 10 29 6 -3 10 -19 10 -34 0
-23 5 -30 25 -33 14 -3 28 -1 31 4 6 9 -5 168 -13 181 -2 4 -15 7 -29 7 -21 0
-24 -4 -24 -40z"/>
<path d="M1041 289 c-23 -9 -24 -12 -18 -91 6 -89 12 -98 69 -98 47 0 57 18
65 110 6 68 5 70 -21 80 -33 12 -63 12 -95 -1z m59 -105 c0 -17 -5 -24 -20
-24 -14 0 -20 7 -20 24 0 23 17 38 33 29 4 -2 7 -15 7 -29z"/>
<path d="M1203 293 c-9 -3 -13 -32 -13 -94 0 -82 1 -89 20 -89 16 0 20 7 20
30 0 28 2 30 39 30 44 0 51 10 51 75 0 30 -5 45 -16 49 -18 7 -83 7 -101 -1z
m57 -79 c0 -9 -7 -14 -17 -12 -25 5 -28 28 -4 28 12 0 21 -6 21 -16z"/>
</g>
</svg>
